<svg width="65" height="65" viewBox="0 0 65 65" fill="none" xmlns="http://www.w3.org/2000/svg">
<g clip-path="url(#clip0)">
<path d="M24.9177 44.4145H20.585V40.0818C20.585 39.4836 20.1 38.9987 19.5018 38.9987H15.1691C14.5709 38.9987 14.0859 39.4836 14.0859 40.0818V44.4145H9.75322C9.15503 44.4145 8.67004 44.8995 8.67004 45.4977V49.8304C8.67004 50.4286 9.15503 50.9136 9.75322 50.9136H14.0859V55.2463C14.0859 55.8445 14.5709 56.3295 15.1691 56.3295H19.5018C20.1 56.3295 20.585 55.8445 20.585 55.2463V50.9136H24.9177C25.5159 50.9136 26.0008 50.4286 26.0008 49.8304V45.4977C26.0008 44.8995 25.5159 44.4145 24.9177 44.4145ZM23.8345 48.7472H19.5018C18.9036 48.7472 18.4186 49.2322 18.4186 49.8304V54.1631H16.2523V49.8304C16.2523 49.2322 15.7673 48.7472 15.1691 48.7472H10.8364V46.5809H15.1691C15.7673 46.5809 16.2523 46.0959 16.2523 45.4977V41.165H18.4186V45.4977C18.4186 46.0959 18.9036 46.5809 19.5018 46.5809H23.8345V48.7472Z" fill="white"/>
<path d="M64.8869 45.6848C64.0561 38.2206 57.0458 31.2374 49.5751 30.4413C48.9406 30.3713 48.3028 30.3351 47.6644 30.3329H35.7495V26.0002H33.5831V23.8339C33.5831 21.441 31.6433 19.5012 29.2504 19.5012H23.8345C22.638 19.5012 21.6682 18.5313 21.6682 17.3348C21.6682 16.1383 22.638 15.1685 23.8345 15.1685H41.1653C43.5582 15.1685 45.498 13.2287 45.498 10.8358C45.498 8.44291 43.5582 6.50308 41.1653 6.50308H35.7495C34.553 6.50308 33.5831 5.53323 33.5831 4.33673V0.00402832H31.4168V4.33673C31.4168 6.7296 33.3566 8.66943 35.7495 8.66943H41.1653C42.3618 8.66943 43.3317 9.63928 43.3317 10.8358C43.3317 12.0323 42.3618 13.0021 41.1653 13.0021H23.8345C21.4417 13.0021 19.5018 14.942 19.5018 17.3348C19.5018 19.7277 21.4417 21.6675 23.8345 21.6675H29.2504C30.4469 21.6675 31.4168 22.6374 31.4168 23.8339V26.0002H29.2504V30.3329H17.3355C16.6964 30.3344 16.0577 30.3706 15.4226 30.4413C7.94868 31.2428 0.942704 38.226 0.114075 45.6902C-0.974111 55.1997 5.8526 63.7909 15.3622 64.8791C19.2346 65.3222 23.1432 64.447 26.4569 62.3951C27.8836 61.4611 29.5143 60.8849 31.211 60.7151C32.0491 60.6489 32.8908 60.6459 33.7293 60.7064C35.4528 60.8731 37.1098 61.456 38.5581 62.4048C46.7002 67.4367 57.3799 64.9155 62.4118 56.7733C64.4593 53.4602 65.3313 49.554 64.8869 45.6848ZM31.4168 28.1666H33.5831V30.3329H31.4168V28.1666ZM58.9673 57.7741C54.0702 63.2517 45.9492 64.4272 39.6998 60.5633C37.9547 59.4269 35.9582 58.7342 33.8842 58.5453C33.4271 58.5122 32.9657 58.4955 32.4999 58.4955C32.0071 58.4955 31.5251 58.5161 31.0398 58.554C28.9974 58.7496 27.0325 59.4356 25.312 60.5535C18.1898 64.96 8.84406 62.7587 4.43743 55.6366C2.64356 52.7372 1.87911 49.3179 2.26743 45.9307C2.98016 39.5161 9.23441 33.2857 15.6555 32.5957C16.2133 32.5333 16.7741 32.5012 17.3355 32.4993H47.6644C48.2256 32.4997 48.7864 32.5296 49.3444 32.5892C55.7644 33.2792 62.0175 39.5096 62.7324 45.9242C63.2432 50.2321 61.8709 54.551 58.9673 57.7741Z" fill="white"/>
<path d="M47.6644 36.8323C45.2715 36.8323 43.3316 38.7721 43.3316 41.165C43.3316 43.5578 45.2715 45.4977 47.6644 45.4977C50.0572 45.4977 51.9971 43.5578 51.9971 41.165C51.9971 38.7721 50.0572 36.8323 47.6644 36.8323ZM47.6644 43.3313C46.4678 43.3313 45.498 42.3615 45.498 41.165C45.498 39.9685 46.4678 38.9986 47.6644 38.9986C48.8609 38.9986 49.8307 39.9685 49.8307 41.165C49.8307 42.3615 48.8607 43.3313 47.6644 43.3313Z" fill="white"/>
<path d="M47.6644 49.8304C45.2715 49.8304 43.3316 51.7703 43.3316 54.1631C43.3316 56.556 45.2715 58.4959 47.6644 58.4959C50.0572 58.4959 51.9971 56.556 51.9971 54.1631C51.9971 51.7703 50.0572 49.8304 47.6644 49.8304ZM47.6644 56.3295C46.4678 56.3295 45.498 55.3597 45.498 54.1631C45.498 52.9666 46.4678 51.9968 47.6644 51.9968C48.8609 51.9968 49.8307 52.9666 49.8307 54.1631C49.8307 55.3597 48.8607 56.3295 47.6644 56.3295Z" fill="white"/>
<path d="M40.0821 43.3313C37.6893 43.3313 35.7494 45.2711 35.7494 47.664C35.7494 50.0569 37.6893 51.9967 40.0821 51.9967C42.475 51.9967 44.4148 50.0569 44.4148 47.664C44.4148 45.2711 42.475 43.3313 40.0821 43.3313ZM40.0821 49.8304C38.8856 49.8304 37.9158 48.8605 37.9158 47.664C37.9158 46.4675 38.8856 45.4977 40.0821 45.4977C41.2786 45.4977 42.2485 46.4675 42.2485 47.664C42.2485 48.8605 41.2785 49.8304 40.0821 49.8304Z" fill="white"/>
<path d="M55.2466 43.3313C52.8537 43.3313 50.9139 45.2711 50.9139 47.664C50.9139 50.0569 52.8537 51.9967 55.2466 51.9967C57.6394 51.9967 59.5793 50.0569 59.5793 47.664C59.5793 45.2711 57.6394 43.3313 55.2466 43.3313ZM55.2466 49.8304C54.0501 49.8304 53.0802 48.8605 53.0802 47.664C53.0802 46.4675 54.0501 45.4977 55.2466 45.4977C56.4431 45.4977 57.4129 46.4675 57.4129 47.664C57.4129 48.8605 56.4429 49.8304 55.2466 49.8304Z" fill="white"/>
</g>
<defs>
<clipPath id="clip0">
<rect width="65" height="65" fill="white"/>
</clipPath>
</defs>
</svg>
