<svg width="30" height="30" viewBox="0 0 30 30" fill="none" xmlns="http://www.w3.org/2000/svg">
<g clip-path="url(#clip0)">
<path d="M28.3136 12.6475L28.3604 12.6577H8.28576L14.5965 6.33309C14.9055 6.02431 15.075 5.60602 15.075 5.16699C15.075 4.72797 14.9055 4.3126 14.5965 4.00309L13.6145 3.02065C13.3058 2.71187 12.8943 2.54114 12.4555 2.54114C12.0165 2.54114 11.6048 2.71065 11.296 3.01943L0.478193 13.8363C0.168192 14.1463 -0.00131979 14.5592 -0.000100277 14.9985C-0.00131979 15.4402 0.168192 15.8533 0.478193 16.1628L11.296 26.9806C11.6048 27.2892 12.0162 27.4589 12.4555 27.4589C12.8943 27.4589 13.3058 27.2889 13.6145 26.9806L14.5965 25.9982C14.9055 25.6899 15.075 25.2782 15.075 24.8392C15.075 24.4004 14.9055 24.0104 14.5965 23.7019L8.21454 17.3419H28.336C29.2402 17.3419 29.9999 16.5626 29.9999 15.6589V14.2694C29.9999 13.3658 29.2177 12.6475 28.3136 12.6475Z" fill="white"/>
</g>
<defs>
<clipPath id="clip0">
<rect width="30" height="30" fill="white"/>
</clipPath>
</defs>
</svg>
