<svg width="30" height="30" viewBox="0 0 30 30" fill="none" xmlns="http://www.w3.org/2000/svg">
<path d="M8.23639 27.289C6.8594 25.7242 5.48247 24.0969 4.60618 22.1566C3.72995 20.0912 3.47957 17.7128 3.91772 15.4596C4.35586 13.2064 5.35726 11.0783 6.79685 9.26324C6.67169 10.828 7.235 12.4553 8.299 13.6445C7.67308 10.6402 8.67453 7.38556 10.6774 5.00719C12.6802 2.62881 15.4342 1.064 18.3133 0C16.8737 1.50214 16.686 3.88052 17.2493 5.88342C17.8126 7.88626 19.0018 9.63878 20.0658 11.4539C21.1298 13.2689 22.1312 15.1466 22.1938 17.2121C22.7571 16.1481 23.3831 15.084 23.7586 13.8948C24.1341 12.7056 24.3219 11.4539 24.009 10.2646C25.1356 11.6416 25.7615 13.0185 26.0744 14.7711C26.3874 16.5236 26.3248 18.3387 26.137 20.0912C25.8867 22.0315 25.386 24.0343 24.322 25.6616C23.0702 27.6019 21.0673 28.9788 18.8767 29.7299C14.996 30.4184 11.1781 29.8551 8.23639 27.289Z" fill="#F3705A"/>
<path d="M12.9932 29.6047C18.1255 31.6076 23.1952 25.5365 20.3787 20.8423C20.3787 20.7796 20.3161 20.7796 20.3161 20.7171C20.5665 23.2832 19.9406 25.1609 18.7514 26.225C19.3773 24.7228 18.9391 22.9703 18.1881 21.4682C17.437 20.0286 16.373 18.7143 15.5593 17.3373C14.7456 15.8977 14.1198 14.2704 14.4953 12.6431C12.9932 13.7697 11.9291 15.4596 11.491 17.2747C11.0529 19.0897 11.3032 21.0926 12.1169 22.7825C11.1781 22.0941 10.4896 20.9675 10.427 19.7783C9.42555 20.9675 8.7997 22.5322 8.86225 24.0969C8.86231 26.5379 10.8025 28.7285 12.9932 29.6047Z" fill="#FFD15C"/>
</svg>
