<svg width="30" height="30" viewBox="0 0 30 30" fill="none" xmlns="http://www.w3.org/2000/svg">
<path d="M23.4349 12.3138C23.2101 12.314 22.9857 12.3276 22.7626 12.3544C22.1569 10.3821 20.3375 9.03418 18.2743 9.02996C17.7608 9.02941 17.2509 9.11473 16.7655 9.28189C15.5641 6.6839 12.7167 5.27198 9.92167 5.88812C7.12625 6.50445 5.1367 8.98244 5.13872 11.8446C5.1389 12.3393 5.20056 12.832 5.32147 13.3112C2.65835 13.7179 0.755593 16.1046 0.953575 18.7914C1.15119 21.4784 3.38294 23.5612 6.07689 23.5731H23.4349C26.5441 23.5731 29.0645 21.0525 29.0645 17.9434C29.0645 14.8342 26.5441 12.3138 23.4349 12.3138ZM23.4349 22.6347H6.07689C3.76404 22.6448 1.87413 20.7909 1.83963 18.4782C1.80532 16.1656 3.6389 14.2564 5.9512 14.1975C6.10129 14.1933 6.24019 14.1175 6.32496 13.9936C6.4101 13.8696 6.43047 13.7127 6.38001 13.5712C5.44881 10.9065 6.83395 7.98831 9.48735 7.02482C12.1406 6.06133 15.0754 7.41124 16.0708 10.0527C16.1164 10.1753 16.2107 10.2731 16.3314 10.323C16.4523 10.3729 16.5883 10.3701 16.7068 10.3155C17.198 10.087 17.7329 9.96868 18.2743 9.96813C20.0593 9.97143 21.5964 11.2287 21.9529 12.9777C22.0039 13.232 22.2516 13.3964 22.5055 13.345C22.8114 13.2837 23.1226 13.2525 23.4349 13.2522C26.0259 13.2522 28.1263 15.3527 28.1263 17.9434C28.1263 20.5344 26.0259 22.6347 23.4349 22.6347Z" fill="black"/>
</svg>
