<svg width="30" height="19" viewBox="0 0 30 19" fill="none" xmlns="http://www.w3.org/2000/svg">
<path d="M23.4349 7.31382C23.2101 7.314 22.9857 7.32758 22.7626 7.35437C22.1569 5.38207 20.3375 4.03418 18.2743 4.02996C17.7608 4.02941 17.2509 4.11473 16.7655 4.28189C15.5641 1.6839 12.7167 0.271976 9.92167 0.888123C7.12625 1.50445 5.1367 3.98244 5.13872 6.84464C5.1389 7.33932 5.20056 7.83198 5.32147 8.31125C2.65835 8.71785 0.755593 11.1046 0.953575 13.7914C1.15119 16.4784 3.38294 18.5612 6.07689 18.5731H23.4349C26.5441 18.5731 29.0645 16.0525 29.0645 12.9434C29.0645 9.83418 26.5441 7.31382 23.4349 7.31382ZM23.4349 17.6347H6.07689C3.76404 17.6448 1.87413 15.7909 1.83963 13.4782C1.80532 11.1656 3.6389 9.25639 5.9512 9.19749C6.10129 9.19327 6.24019 9.11749 6.32496 8.99363C6.4101 8.8696 6.43047 8.71272 6.38001 8.57125C5.44881 5.90648 6.83395 2.98831 9.48735 2.02482C12.1406 1.06133 15.0754 2.41124 16.0708 5.05271C16.1164 5.17528 16.2107 5.27308 16.3314 5.32299C16.4523 5.3729 16.5883 5.37014 16.7068 5.31547C17.198 5.08703 17.7329 4.96868 18.2743 4.96813C20.0593 4.97143 21.5964 6.22868 21.9529 7.97767C22.0039 8.23198 22.2516 8.39639 22.5055 8.34501C22.8114 8.28372 23.1226 8.25253 23.4349 8.25216C26.0259 8.25216 28.1263 10.3527 28.1263 12.9434C28.1263 15.5344 26.0259 17.6347 23.4349 17.6347Z" fill="black"/>
</svg>
